<svg width="52" height="52" viewBox="0 0 52 52" fill="none" xmlns="http://www.w3.org/2000/svg">
<path d="M8.93749 1.75698C8.43983 1.91949 7.58671 2.79292 7.43436 3.31089C7.26171 3.91011 7.26171 17.2148 7.43436 17.814C7.59686 18.3726 8.43983 19.2156 8.99843 19.3781C9.6078 19.5507 37.5172 19.5507 38.1265 19.3781C38.6851 19.2156 39.5281 18.3726 39.6906 17.814C39.7617 17.5703 39.8125 16.7984 39.8125 16.0062V14.625H41.9961C44.1898 14.625 44.1898 14.625 44.4336 14.371L44.6875 14.1273V10.5625V6.99761L44.4336 6.75386C44.1898 6.49995 44.1898 6.49995 41.9961 6.49995H39.8125V5.1187C39.8125 4.32652 39.7617 3.55464 39.6906 3.31089C39.5281 2.7523 38.6851 1.90933 38.1265 1.74683C37.5578 1.58433 9.47577 1.58433 8.93749 1.75698ZM37.9336 3.50386L38.1875 3.74761V10.5625V17.3773L37.9336 17.621L37.6898 17.875H23.5625H9.43514L9.19139 17.621L8.93749 17.3773V10.5625V3.74761L9.19139 3.50386L9.43514 3.24995H23.5625H37.6898L37.9336 3.50386ZM43.0625 10.5625V13H41.4375H39.8125V10.5625V8.12495H41.4375H43.0625V10.5625Z" fill="black" fill-opacity="0.6"/>
<path d="M10.8164 5.12866L10.5625 5.37241V10.5623V15.7521L10.8164 15.9958L11.0602 16.2498H23.5625H36.0648L36.3086 15.9958L36.5625 15.7521V10.5623V5.37241L36.3086 5.12866L36.0648 4.87476H23.5625H11.0602L10.8164 5.12866ZM13.4062 6.53022C13.4062 6.54038 13.132 6.82476 12.7969 7.15991L12.1875 7.75913V7.12944V6.49976H12.7969C13.132 6.49976 13.4062 6.50991 13.4062 6.53022ZM15.6914 9.95288L12.2383 13.406L12.2078 11.7607L12.1773 10.1154L13.9852 8.30757L15.793 6.49976H17.4687H19.1445L15.6914 9.95288ZM21.582 10.5623L17.5195 14.6248H15.4375H13.3555L17.418 10.5623L21.4805 6.49976H23.5625H25.6445L21.582 10.5623ZM27.2695 10.5623L23.207 14.6248H21.5312H19.8555L23.918 10.5623L27.9805 6.49976H29.6562H31.332L27.2695 10.5623ZM34.9375 7.53569V8.58179L31.9211 11.5982L28.8945 14.6248H27.2188H25.543L29.6055 10.5623L33.668 6.49976H34.2977H34.9375V7.53569ZM34.9375 12.7966V14.6248H33.0891H31.2305L33.0586 12.7966C34.0641 11.7912 34.8969 10.9685 34.907 10.9685C34.9273 10.9685 34.9375 11.7912 34.9375 12.7966Z" fill="black" fill-opacity="0.6"/>
<path d="M1.8789 10.0037L1.62499 10.2474V16.656V23.0646L1.8789 23.3083L2.12265 23.5623H7.5664H13V24.781V25.9998H8.36874C5.02734 25.9998 3.61562 26.0302 3.31093 26.1216C2.75234 26.2841 1.90937 27.1271 1.74687 27.6857C1.46249 28.6404 1.66562 29.4021 2.38671 30.113C3.04687 30.7833 3.39218 30.8748 5.11874 30.8748H6.49999V36.3084V41.7521L6.7539 41.9958L6.99765 42.2498H9.27265H11.5578L11.6797 42.5544C11.7508 42.7271 12.0047 43.0419 12.2484 43.2552C13.2336 44.1185 14.6047 44.0677 15.5187 43.1333C17.2961 41.3154 15.5086 38.4005 13.0609 39.1216C12.6039 39.2537 11.5781 40.188 11.5781 40.4623C11.5781 40.6044 11.3547 40.6248 9.85156 40.6248H8.12499V35.7498V30.8748H26H43.875V35.7498V40.6248H42.1586H40.4422L40.3203 40.3201C40.0359 39.6294 39.0102 38.9998 38.1672 38.9998C36.8977 38.9998 35.75 40.1474 35.75 41.4373C35.75 42.7271 36.8977 43.8748 38.1672 43.8748C39.0102 43.8748 40.0359 43.2451 40.3203 42.5544L40.4422 42.2498H42.7273H45.0023L45.2461 41.9958L45.5 41.7521V36.3084V30.8748H46.9016C48.6586 30.8748 49.075 30.7529 49.6945 30.0623C50.6086 29.0466 50.6086 27.8279 49.6945 26.8123C48.9633 25.9896 49.0141 25.9998 43.6516 25.9998H39V24.781V23.5623H44.4336H49.8773L50.1211 23.3083L50.375 23.0646V16.656V10.2474L50.1211 10.0037C49.8773 9.74976 49.8469 9.74976 48.0898 9.74976H46.3125V10.5623V11.3748H47.5312H48.75V16.656V21.9373H43.3164H37.8727L37.6289 22.1912C37.375 22.4349 37.375 22.4654 37.375 24.2224V25.9998H26H14.625V24.2224C14.625 22.4654 14.625 22.4349 14.3711 22.1912L14.1273 21.9373H8.68359H3.24999V16.656V11.3748H4.46874H5.68749V10.5623V9.74976H3.91015C2.15312 9.74976 2.12265 9.74976 1.8789 10.0037ZM48.4961 27.8787C48.8312 28.2037 48.8312 28.6708 48.4961 28.9959L48.2523 29.2498H26H3.74765L3.5039 28.9959C3.3414 28.8435 3.24999 28.6302 3.24999 28.4373C3.24999 28.2443 3.3414 28.031 3.5039 27.8787L3.74765 27.6248H26H48.2523L48.4961 27.8787ZM14.3711 40.8787C14.8789 41.3763 14.5234 42.2498 13.8125 42.2498C13.6195 42.2498 13.4062 42.1583 13.2539 41.9958C13.0914 41.8435 13 41.6302 13 41.4373C13 41.2443 13.0914 41.031 13.2539 40.8787C13.4062 40.7162 13.6195 40.6248 13.8125 40.6248C14.0055 40.6248 14.2187 40.7162 14.3711 40.8787ZM38.7461 40.8787C39.2539 41.3763 38.8984 42.2498 38.1875 42.2498C37.7711 42.2498 37.375 41.8537 37.375 41.4373C37.375 41.0208 37.7711 40.6248 38.1875 40.6248C38.3805 40.6248 38.5937 40.7162 38.7461 40.8787Z" fill="black" fill-opacity="0.6"/>
<path d="M25.5633 32.6116C25.3297 32.7538 20.3125 42.778 20.3125 43.1131C20.3125 43.2553 20.4242 43.4889 20.5664 43.621C20.8102 43.8749 20.8102 43.8749 23.0039 43.8749H25.1875V46.871V49.8772L25.4414 50.121C25.6953 50.385 26.0812 50.446 26.4164 50.2733C26.6602 50.1311 31.6875 40.117 31.6875 39.7616C31.6875 39.6194 31.5758 39.3858 31.4336 39.2538C31.1898 38.9999 31.1898 38.9999 28.9961 38.9999H26.8125V36.0038V32.9975L26.5586 32.7538C26.3047 32.4897 25.8781 32.4288 25.5633 32.6116ZM25.482 40.4319C25.6953 40.6045 25.8984 40.6249 27.6352 40.6249H29.5547L28.2039 43.3163L26.8633 46.0178L26.8125 44.3217C26.7414 42.0975 26.9242 42.2499 24.3648 42.2499H22.4453L23.7961 39.5585L25.1367 36.8569L25.1875 38.553C25.2383 40.1678 25.2484 40.2491 25.482 40.4319Z" fill="black" fill-opacity="0.6"/>
</svg>
