<svg width="26" height="27" viewBox="0 0 26 27" fill="none" xmlns="http://www.w3.org/2000/svg">
<g clip-path="url(#clip0_22_638)">
<path d="M12.9474 3.22828C16.3443 3.22828 16.7472 3.24102 18.0883 3.30258C19.4751 3.36626 20.9032 3.68257 21.9135 4.69411C22.9334 5.7152 23.2398 7.13115 23.3034 8.52374C23.3649 9.86645 23.3777 10.2698 23.3777 13.6706C23.3777 17.0714 23.3649 17.4748 23.3034 18.8175C23.2409 20.1984 22.9175 21.6419 21.9135 22.6471C20.8936 23.6682 19.4804 23.9749 18.0883 24.0386C16.7472 24.1002 16.3443 24.1129 12.9474 24.1129C9.55054 24.1129 9.14766 24.1002 7.80651 24.0386C6.43779 23.976 4.97683 23.6448 3.98131 22.6471C2.9667 21.6313 2.655 20.2016 2.59139 18.8175C2.52989 17.4748 2.51717 17.0714 2.51717 13.6706C2.51717 10.2698 2.52989 9.86645 2.59139 8.52374C2.65394 7.14813 2.98048 5.6961 3.98131 4.69411C4.9991 3.67514 6.41871 3.36626 7.80651 3.30258C9.14766 3.24102 9.55054 3.22828 12.9474 3.22828ZM12.9474 0.933472C9.49222 0.933472 9.0586 0.948332 7.70155 1.00989C5.73488 1.10012 3.78199 1.64781 2.36026 3.07119C0.933233 4.49987 0.391471 6.45077 0.301354 8.41866C0.239862 9.77729 0.225019 10.2114 0.225019 13.6706C0.225019 17.1298 0.239862 17.5639 0.301354 18.9225C0.391471 20.8894 0.940654 22.8498 2.36026 24.27C3.78623 25.6976 5.73806 26.2411 7.70155 26.3313C9.0586 26.3929 9.49222 26.4077 12.9474 26.4077C16.4026 26.4077 16.8362 26.3929 18.1933 26.3313C20.1589 26.2411 22.1139 25.6923 23.5346 24.27C24.9627 22.8403 25.5034 20.8904 25.5935 18.9225C25.655 17.5639 25.6698 17.1298 25.6698 13.6706C25.6698 10.2114 25.655 9.77729 25.5935 8.41866C25.5034 6.44971 24.9552 4.4935 23.5346 3.07119C22.1107 1.64569 20.1536 1.09905 18.1933 1.00989C16.8362 0.948332 16.4026 0.933472 12.9474 0.933472Z" fill="#696969" fill-opacity="0.7"/>
<path d="M12.9474 7.13013C9.33956 7.13013 6.41446 10.0586 6.41446 13.6706C6.41446 17.2827 9.33956 20.2112 12.9474 20.2112C16.5553 20.2112 19.4804 17.2827 19.4804 13.6706C19.4804 10.0586 16.5553 7.13013 12.9474 7.13013ZM12.9474 17.9164C10.6054 17.9164 8.70662 16.0153 8.70662 13.6706C8.70662 11.3259 10.6054 9.42493 12.9474 9.42493C15.2894 9.42493 17.1882 11.3259 17.1882 13.6706C17.1882 16.0153 15.2894 17.9164 12.9474 17.9164Z" fill="#696969" fill-opacity="0.7"/>
<path d="M19.7391 8.40029C20.5822 8.40029 21.2657 7.71581 21.2657 6.87147C21.2657 6.02713 20.5822 5.34265 19.7391 5.34265C18.8959 5.34265 18.2124 6.02713 18.2124 6.87147C18.2124 7.71581 18.8959 8.40029 19.7391 8.40029Z" fill="#696969" fill-opacity="0.7"/>
</g>
<defs>
<clipPath id="clip0_22_638">
<rect width="25.4448" height="25.4743" fill="white" transform="translate(0.225019 0.933472)"/>
</clipPath>
</defs>
</svg>
