<svg width="51" height="51" viewBox="0 0 51 51" fill="none" xmlns="http://www.w3.org/2000/svg">
<path d="M22.1531 3.34663C17.5711 4.70132 13.7461 6.01616 13.6664 6.25522C13.3875 7.0521 14.3438 9.92085 15.0211 10.3193C15.5391 10.5982 15.4594 10.7177 14.4234 10.9568C12.5508 11.3552 8.80547 13.9451 6.65391 16.2958C3.54609 19.8021 1.59375 24.8224 1.59375 29.4841C1.59375 40.2419 10.7578 49.406 21.5156 49.406C32.3133 49.406 41.4773 40.2021 41.4375 29.3646C41.4375 27.4521 40.7203 23.8263 40.043 22.1927C39.8039 21.5951 40.0031 21.5154 41.3977 21.5154H42.9914L43.1109 24.5833L43.2305 27.6912H46.2188H49.207V15.1404V2.5896H46.2188H43.2305L43.1109 4.86069C42.9914 7.41069 43.1508 7.331 38.25 7.76928C36.8156 7.88882 34.9828 8.08804 34.1859 8.20757C32.8312 8.40678 32.6719 8.3271 32.0742 7.13178C31.4367 5.93647 31.4367 5.81694 32.0742 5.45835C32.5922 5.17944 32.6719 4.781 32.4727 3.66538C32.1141 1.79272 31.5961 0.796627 30.9586 0.836472C30.6797 0.836472 26.7352 1.99194 22.1531 3.34663ZM30.7992 3.38647C30.9586 3.70522 30.9187 4.02397 30.7594 4.10366C30.6 4.22319 27.1734 5.21928 23.1492 6.4146C16.0969 8.44663 15.4594 8.52631 15.4992 7.29116C15.4992 6.97241 28.7273 2.90834 29.9227 2.82866C30.2812 2.78881 30.6797 3.06772 30.7992 3.38647ZM47.8125 15.1404V26.2966H46.2188H44.625V15.1404V3.98413H46.2188H47.8125V15.1404ZM30.2812 7.17163C30.5203 7.60991 30.6398 8.12788 30.5203 8.3271C30.4008 8.48647 28.7273 8.76538 26.8148 8.92475C24.8625 9.08413 22.6313 9.32319 21.8344 9.44272C18.8859 9.881 20.3602 8.88491 24.4242 7.64975C29.325 6.17553 29.7234 6.13569 30.2812 7.17163ZM43.0312 14.3435C43.0312 19.6427 42.9914 19.9216 42.2344 19.9216C41.4773 19.9216 41.4375 19.6427 41.4375 14.6224C41.4375 11.674 41.557 9.16381 41.7164 9.04428C41.8359 8.88491 42.1945 8.76538 42.5133 8.76538C42.9117 8.76538 43.0312 9.96069 43.0312 14.3435ZM39.8438 14.5427V19.9216H37.4531C35.3414 19.9216 35.0625 20.0013 35.0625 20.7185C35.0625 21.3958 35.3414 21.5154 36.6562 21.5154C38.2102 21.5154 38.2102 21.5552 38.8477 23.5873C40.9992 30.6396 39.4055 37.3732 34.3852 42.3537C23.3484 53.3904 4.50234 46.4576 3.30703 30.8787C2.66953 22.5115 8.04844 14.5029 16.057 11.9529C17.2125 11.5943 34.943 9.48257 39.1664 9.20366C39.7641 9.16381 39.8438 9.68179 39.8438 14.5427ZM18.4477 9.84116C18.1687 9.92085 17.6906 9.92085 17.4516 9.84116C17.1727 9.72163 17.3719 9.64194 17.9297 9.64194C18.4875 9.64194 18.6867 9.72163 18.4477 9.84116Z" fill="black" fill-opacity="0.6"/>
<path d="M17.7305 15.6583C13.3875 17.1326 10.3195 19.7623 8.48672 23.7068C7.53047 25.7388 7.37109 26.6154 7.37109 29.4841C7.37109 32.3529 7.53047 33.2294 8.48672 35.3013C9.92109 38.3693 12.6305 41.0787 15.7383 42.513C17.7703 43.4693 18.6469 43.6287 21.5156 43.6287C24.3844 43.6287 25.2609 43.4693 27.293 42.513C30.4008 41.0787 33.1102 38.3693 34.5445 35.3013C35.5008 33.2294 35.6602 32.3529 35.6602 29.4841C35.6602 26.6154 35.5008 25.7388 34.5445 23.6669C32.2734 18.7662 27.4922 15.5388 22.1531 15.2599C20.5195 15.2201 18.6469 15.3794 17.7305 15.6583ZM26.8945 17.9693C29.4047 19.1646 31.7953 21.5552 33.0703 24.1052C33.8672 25.7388 34.0664 26.6951 34.0664 29.4841C34.0266 32.5521 33.907 33.1099 32.7117 35.381C31.1977 38.1701 29.9227 39.4052 26.9344 40.9591C25.2211 41.8357 24.3844 41.9951 21.5156 41.9951C18.7266 42.0349 17.7703 41.8357 16.1367 41.0388C5.77734 35.9388 6.65391 21.3162 17.5312 17.3716C20.0414 16.4552 24.3047 16.7341 26.8945 17.9693Z" fill="black" fill-opacity="0.6"/>
<path d="M18.368 18.7661C13.8258 20.0809 10.3594 24.7028 10.3594 29.5239C10.3594 34.1059 13.8258 38.8075 18.1289 40.0825C23.5477 41.6364 28.8469 39.4051 31.357 34.5044C35.7398 25.8981 27.6914 16.0966 18.368 18.7661ZM24.4641 20.3997C27.8906 21.4356 31.0781 25.8184 31.0781 29.4841C31.0781 34.4247 26.4562 39.0466 21.5156 39.0466C16.575 39.0466 11.9531 34.4247 11.9531 29.4841C11.9531 26.9739 12.8695 24.9419 14.9414 22.9098C17.7305 20.0809 20.7188 19.3239 24.4641 20.3997Z" fill="black" fill-opacity="0.6"/>
<path d="M19.2844 26.1374C18.2883 28.2491 17.5711 30.2413 17.6906 30.56C17.8102 30.8389 18.4875 31.078 19.2844 31.078H20.6789L20.7984 33.7475C20.8781 35.421 21.1172 36.4569 21.4359 36.5764C22.0336 36.7757 25.6594 29.2452 25.3406 28.4085C25.2211 28.1296 24.5438 27.8905 23.7469 27.8905H22.3523L22.2328 25.221C22.0734 21.3561 21.4359 21.5553 19.2844 26.1374ZM20.7984 28.4882C20.9578 29.2452 20.8383 29.4843 20.2805 29.4843C19.643 29.4843 19.6031 29.3647 20.0016 28.4882C20.2406 27.9303 20.4797 27.4921 20.5195 27.4921C20.5992 27.4921 20.7188 27.9303 20.7984 28.4882ZM23.0695 30.3608C22.432 31.6358 22.432 31.6358 22.2328 30.4803C22.0734 29.6835 22.193 29.4843 22.7906 29.4843C23.4281 29.4843 23.468 29.6038 23.0695 30.3608Z" fill="black" fill-opacity="0.6"/>
</svg>
