<svg width="57" height="51" viewBox="0 0 57 51" fill="none" xmlns="http://www.w3.org/2000/svg">
<path opacity="0.7" d="M49.9911 13.6783C46.3229 12.7317 43.9684 9.16009 44.1868 4.73293L43.6191 4.54361C44.0776 3.35308 44.9182 2.11159 46.6322 1.03028C49.0195 -0.466071 52.291 0.229314 53.9104 1.33975C51.8288 2.49023 50.7517 3.02906 48.7465 4.25963C47.9823 7.58729 49.6527 9.37126 52.0217 9.96106C54.0014 8.93801 53.2626 9.32757 56.9709 7.64918C56.9891 10.5436 54.267 13.5727 50.7808 14.1589C50.5479 14.1989 50.2822 14.2244 49.9984 14.2317L49.9911 13.6783Z" fill="black" fill-opacity="0.6"/>
<path opacity="0.7" d="M41.1554 43.0811C41.2573 43.4634 41.3883 43.8457 41.5557 44.228C40.2493 40.4598 44.0849 34.3979 48.994 35.1297C48.4845 34.9877 47.986 34.8967 47.4983 34.8639L47.5566 34.1831C48.4627 34.2596 49.3179 34.3724 49.9947 34.6309C51.3667 34.7984 52.6913 35.3227 53.7976 36.2693C56.9745 38.9816 57.3821 44.3408 54.6637 47.5119C51.9453 50.6903 46.6031 51.0981 43.4262 48.3784C43.408 48.3529 43.3862 48.3457 43.3607 48.3129C41.5994 47.1806 40.9298 45.2765 40.3767 43.2886L41.1554 43.0811ZM53.783 43.336L53.3245 42.0544L53.5647 40.7292L52.5421 39.8481L52.0836 38.5666L50.7444 38.3154L49.7109 37.4416L48.4372 37.9003L47.098 37.6527L46.2101 38.6831L44.9291 39.1345L44.6817 40.4816L43.801 41.512L44.2668 42.7862L44.0194 44.1333L45.0529 45.0144L45.5041 46.2959L46.836 46.5435L47.8768 47.4245L49.165 46.9658L50.4897 47.2134L51.363 46.1721L52.6513 45.7207L52.8987 44.3882L53.783 43.336Z" fill="black" fill-opacity="0.6"/>
<path opacity="0.7" d="M16.6935 43.6527C17.2685 38.8579 14.0334 34.2742 9.22249 34.8312L9.09149 34.0885C11.2458 33.7244 14.1061 33.8882 15.5072 32.7159L23.4659 25.6929C19.8996 22.6965 16.537 19.9186 10.6563 15.0473C9.71741 14.8289 8.47648 14.9126 7.43571 14.9126L7.38476 14.3301C12.101 13.8823 14.0042 8.46118 12.8689 5.23547L13.4365 5.04615C14.2371 7.034 13.9788 8.90535 14.9431 9.68083L28.4696 21.2803L42.1853 9.18205C43.1314 8.38472 42.844 6.53522 43.6154 4.54736L44.1831 4.73668C43.0914 8.00608 45.1293 13.4818 49.9875 13.682L49.9948 14.2391C48.9067 14.2828 47.5347 14.1808 46.534 14.432C40.4967 19.5655 37.1597 22.3944 33.4988 25.5837L42.1853 33.0217C43.3825 33.9938 45.5878 34.012 47.5529 34.1868L47.4947 34.8676C43.0514 34.5509 39.9836 38.694 41.1481 43.0884L40.3767 43.296C39.9436 41.7632 39.5943 40.1831 38.8701 38.8761C34.4195 35.0169 31.1807 32.2353 28.4951 29.9489C25.9768 32.1771 22.9491 34.8494 18.8624 38.4647C18.0218 40.052 17.7234 42.0253 17.1739 43.8239L16.6935 43.6819C16.6935 43.671 16.6935 43.6637 16.6935 43.6527ZM41.8396 15.2403C42.6292 14.534 42.9459 13.6019 42.5383 13.1432C42.138 12.6954 41.1736 12.8956 40.3839 13.5837L30.0926 22.6638L31.7812 24.1055L41.8396 15.2403ZM39.1503 34.6746C39.5506 34.2159 39.2158 33.2766 38.4006 32.5776L16.8318 14.1116C16.0312 13.4199 15.0523 13.2379 14.652 13.6857C14.2517 14.1662 14.5792 15.0983 15.3944 15.7827L36.9705 34.2669C37.7711 34.9659 38.75 35.1479 39.1503 34.6746ZM20.7111 33.8737L26.792 28.5072C26.2097 28.0011 25.642 27.5351 25.1034 27.0655L19.2518 32.228C18.4694 32.9198 18.1382 33.8591 18.5458 34.3106C18.9534 34.7729 19.9105 34.5763 20.7111 33.8737Z" fill="black" fill-opacity="0.6"/>
<path opacity="0.7" d="M16.6935 43.6854L17.1739 43.8274C16.6826 45.484 15.9839 46.9985 14.47 47.956C12.3557 49.314 9.3353 50.1041 5.83451 48.3893C7.69044 47.348 9.6701 46.3941 11.5733 45.4039C11.5297 43.223 11.5297 43.223 11.355 41.075C10.2742 40.1575 9.68102 39.5532 7.87967 38.5847C5.24498 39.9973 4.50261 40.2413 2.44653 41.5956C2.08262 38.5592 5.02299 35.8687 7.41387 34.5872C7.87239 34.3396 8.45465 34.194 9.09512 34.0884L9.22613 34.8311C13.775 34.9075 16.6972 40.6417 16.6972 43.6526C16.6935 43.6636 16.6935 43.6709 16.6935 43.6854Z" fill="black" fill-opacity="0.6"/>
<path opacity="0.7" d="M7.15186 14.345C7.22828 14.3378 7.30834 14.3305 7.38476 14.3268L7.43571 14.9094C7.04269 14.9094 6.6715 14.8948 6.36218 14.8511C2.83955 14.2941 0.0483773 11.2832 0.0301819 8.35963C3.78935 10.0089 3.0397 9.62662 5.04483 10.6315C7.43935 9.99069 9.09513 8.17031 8.26542 4.83902C6.21298 3.61573 5.13945 3.09146 3.01787 1.95918C4.6227 0.819623 7.92699 0.0769078 10.347 1.55141C12.0937 2.61816 12.9598 3.85601 13.4402 5.04654L12.8725 5.23586C13.1491 9.69215 10.8419 13.3365 7.15186 14.345Z" fill="black" fill-opacity="0.6"/>
</svg>
