<svg width="26" height="22" viewBox="0 0 26 22" fill="none" xmlns="http://www.w3.org/2000/svg">
<path d="M23.9825 0.122482C22.2726 0.76186 1.17519 9.00217 0.863379 9.15562C-0.167601 9.65178 -0.288301 10.3065 0.571687 10.7515C0.657183 10.7975 2.08044 11.2579 3.74509 11.7847L6.76762 12.7413L13.6274 8.37302C17.4043 5.97407 20.5677 3.97921 20.6582 3.94852C20.8946 3.86668 21.0957 3.8718 21.1863 3.96898C21.2516 4.03548 21.2567 4.06617 21.2013 4.16335C21.1712 4.22985 18.6616 6.54696 15.634 9.30907C12.6065 12.0763 10.1171 14.3576 10.107 14.3832C10.0969 14.4088 9.99635 15.7898 9.88068 17.4522L9.66945 20.4701L9.9008 20.4394C10.0265 20.424 10.2227 20.3575 10.3383 20.291C10.459 20.2297 11.2436 19.5033 12.0935 18.6798C12.9384 17.8563 13.6626 17.1658 13.6978 17.1555C13.733 17.1402 15.0808 18.112 16.6952 19.3141C18.3045 20.5161 19.7479 21.5544 19.9038 21.6261C20.3112 21.8204 20.7638 21.8358 21.0605 21.6772C21.3271 21.534 21.5836 21.1759 21.6942 20.8025C21.7344 20.6593 22.6598 16.3269 23.7411 11.1761C25.5465 2.60327 25.7125 1.77464 25.7125 1.32963C25.7125 0.910194 25.6974 0.807896 25.5868 0.58795C25.5113 0.429384 25.3755 0.270819 25.2448 0.178747C24.9481 -0.0309696 24.4552 -0.0565434 23.9825 0.122482Z" fill="#1A9D48"/>
</svg>
