<svg width="22" height="24" viewBox="0 0 22 24" fill="none" xmlns="http://www.w3.org/2000/svg">
<path d="M6.69758 0.159796C4.25149 0.659592 1.78315 2.59359 0.693524 4.89699C0.137593 6.0487 0.0931185 6.37465 0.0264067 9.65592C-0.040305 12.5678 0.00416949 13.3935 0.337728 14.3279C0.915897 16.0663 2.09447 17.6744 3.56213 18.6957L4.87413 19.5867V21.5858C4.87413 22.8245 4.96308 23.6502 5.11874 23.7589C5.25216 23.8458 6.16389 23.0852 7.23128 22.0204L9.12145 20.1516H12.0123C14.2805 20.1516 15.1477 20.0647 16.1039 19.7388C18.6168 18.8696 20.6181 16.8269 21.4409 14.3279C21.7522 13.4153 21.7967 12.5243 21.73 9.65592C21.6633 6.17908 21.6633 6.09216 20.9517 4.70142C20.0622 2.94127 18.6835 1.65918 16.7043 0.746513C15.2367 0.0728741 15.17 0.0511456 11.4341 0.00768471C9.36606 -0.0140457 7.23128 0.0511456 6.69758 0.159796ZM14.7475 4.02778C16.5487 4.98392 17.5716 6.72234 17.5938 8.78671C17.6161 9.96014 17.3492 10.5469 16.9267 10.2861C16.7933 10.2209 16.7488 9.7863 16.8155 9.32997C17.1713 6.74407 14.7252 4.07124 11.9678 4.07124C11.234 4.07124 11.0338 3.87567 11.3674 3.48453C11.7454 3.02819 13.3688 3.31068 14.7475 4.02778ZM8.23195 5.74447C9.83304 7.22213 9.92199 7.78712 8.74341 8.74325C8.00958 9.3517 7.94287 9.48208 8.09853 10.1557C8.29867 11.0901 10.0109 12.8937 10.9894 13.198C11.7677 13.437 12.6572 13.2197 12.6572 12.7633C12.6572 12.3939 13.3688 11.8941 13.9247 11.8941C14.3472 11.8941 14.8364 12.2418 15.6814 13.1328C16.3486 13.8281 16.8822 14.567 16.8822 14.7843C16.8822 15.3058 15.2145 17.0442 14.5251 17.1963C13.5911 17.4354 11.7454 16.7617 10.0776 15.61C6.83101 13.3935 4.20701 9.7863 4.20701 7.54809C4.20701 6.59196 4.29596 6.43984 5.31887 5.50544C5.91928 4.96218 6.51969 4.50585 6.65311 4.50585C6.78653 4.50585 7.49813 5.0491 8.23195 5.74447ZM13.7246 5.24468C15.1033 5.94005 15.9928 7.33078 15.9928 8.76498C15.9928 9.3517 15.9038 9.52554 15.637 9.46035C15.3924 9.41689 15.2367 9.11267 15.1922 8.54768C15.1255 7.7002 14.3027 6.41811 13.5911 6.0487C13.3688 5.94005 12.8128 5.78794 12.3236 5.70101C11.2562 5.50544 11.0561 5.39679 11.2117 5.13603C11.4119 4.8318 13.0574 4.89699 13.7246 5.24468ZM13.1019 6.78753C14.1693 7.33078 14.8809 9.0692 14.0359 9.0692C13.769 9.0692 13.5689 8.83017 13.4355 8.35211C13.2798 7.85231 13.0352 7.59155 12.5015 7.43943C11.6343 7.15694 11.4564 7.00483 11.6565 6.70061C11.8566 6.37465 12.3458 6.39638 13.1019 6.78753Z" fill="#1A9D48"/>
</svg>
