<svg width="25" height="18" viewBox="0 0 25 18" fill="none" xmlns="http://www.w3.org/2000/svg">
<path d="M24.471 3.25526C24.1887 2.24848 23.3572 1.45489 22.3006 1.18551C20.387 0.697144 12.711 0.697144 12.711 0.697144C12.711 0.697144 5.03495 0.697144 3.1203 1.18551C2.06478 1.45489 1.23325 2.24751 0.950966 3.25526C0.437527 5.08082 0.437527 8.88892 0.437527 8.88892C0.437527 8.88892 0.437527 12.697 0.950966 14.5226C1.23325 15.5293 2.06478 16.3229 3.12132 16.5923C5.03495 17.0807 12.711 17.0807 12.711 17.0807C12.711 17.0807 20.387 17.0807 22.3016 16.5923C23.3572 16.3229 24.1887 15.5303 24.472 14.5226C24.9844 12.697 24.9844 8.88892 24.9844 8.88892C24.9844 8.88892 24.9844 5.08082 24.471 3.25526ZM10.2011 12.3472V5.43062L16.616 8.88892L10.2011 12.3472Z" fill="#696969" fill-opacity="0.7"/>
</svg>
