<svg xmlns="http://www.w3.org/2000/svg" aria-hidden="true" overflow="hidden" style="position:absolute;width:0;height:0">
  <defs>
    <symbol id="icon-menu-down" viewBox="0 0 64 32">
      <path d="M33.844 31.344 61.49 3.935c.905-.898.904-2.352-.005-3.248s-2.38-.893-3.286.005L32.198 26.469 6.197.691c-.906-.898-2.377-.9-3.285-.005-.455.449-.683 1.038-.683 1.627 0 .587.226 1.174.678 1.622l27.646 27.409c.435.433 1.028.675 1.645.675s1.209-.243 1.645-.675z"/>
    </symbol>
    <symbol id="icon-arrow-left" viewBox="0 0 18 32">
      <path d="M2.275 15.86 15.964 2.021c.448-.453 1.175-.452 1.622.002s.446 1.191-.002 1.645L4.71 16.683l12.874 13.015c.448.453.45 1.19.002 1.644-.224.228-.518.342-.813.342s-.586-.113-.81-.34L2.274 17.505c-.216-.218-.337-.514-.337-.823s.122-.605.337-.823z"/>
    </symbol>
    <symbol id="icon-arrow-down" viewBox="0 0 32 32">
      <path d="M28.877 30.311H13.77V27.79h13.327L1.234 1.897 3.014.115l25.863 25.893V12.665h2.518V27.79c0 1.39-1.129 2.521-2.518 2.521z"/>
    </symbol>
    <symbol id="icon-arrow-right" viewBox="0 0 18 32">
      <path d="M16.724 14.931 2.799 1.092c-.456-.453-1.195-.452-1.65.002s-.454 1.191.002 1.645l13.096 13.015L1.151 28.769c-.456.454-.457 1.19-.002 1.644.228.228.527.342.827.342s.596-.113.824-.34l13.925-13.839c.22-.218.343-.514.343-.823s-.124-.605-.343-.823z"/>
    </symbol>
    <symbol id="icon-arrow-up" viewBox="0 0 32 32">
      <path d="M31.456 2.895v14.962h-2.491V4.658L3.381 30.272 1.62 28.509 27.204 2.896H14.02V.402h14.945c1.374 0 2.491 1.118 2.491 2.494z"/>
    </symbol>
    <symbol id="icon-battery" viewBox="0 0 32 32">
      <path d="M5.5 1.081c-.306.1-.831.637-.925.956-.106.369-.106 8.556 0 8.925.1.344.619.863.963.963.375.106 17.55.106 17.925 0 .344-.1.863-.619.963-.963.044-.15.075-.625.075-1.113v-.85h1.344c1.35 0 1.35 0 1.5-.156l.156-.15V4.305l-.156-.15c-.15-.156-.15-.156-1.5-.156h-1.344v-.85c0-.487-.031-.962-.075-1.113-.1-.344-.619-.863-.963-.962-.35-.1-17.631-.1-17.962.006zm17.844 1.075.156.15v8.387l-.156.15-.15.156H5.807l-.15-.156-.156-.15V2.306l.156-.15.15-.156h17.387l.15.156zM26.5 6.5V8h-2V5h2v1.5z"/>
      <path d="m6.656 3.156-.156.15v6.387l.156.15.15.156h15.387l.15-.156.156-.15V3.305l-.156-.15-.15-.156H6.806l-.15.156zm1.594.863c0 .006-.169.181-.375.388l-.375.369v-.775h.375c.206 0 .375.006.375.019zm1.406 2.106L7.531 8.25l-.038-2.025L9.718 4h2.062L9.655 6.125zm3.625.375-2.5 2.5H8.219l5-5h2.562l-2.5 2.5zm3.5 0-2.5 2.5h-2.062l5-5h2.062l-2.5 2.5zM21.5 4.637v.644L17.781 9h-2.062l5-5h.781v.638zm0 3.238V9h-2.281l1.125-1.125c.619-.619 1.131-1.125 1.137-1.125.012 0 .019.506.019 1.125z"/>
      <path d="M1.156 6.156 1 6.306v7.888l.156.15.15.156H8V16H5.15c-2.056 0-2.925.019-3.112.075-.344.1-.863.619-.962.963-.175.587-.05 1.056.394 1.494.406.413.619.469 1.681.469h.85v6.694l.156.15.15.156h2.806l.075.187c.044.106.2.3.35.431.606.531 1.45.5 2.013-.075 1.094-1.119-.006-2.913-1.512-2.469-.281.081-.912.656-.912.825 0 .087-.137.1-1.063.1H5.001v-6h22v6h-2.113l-.075-.188c-.175-.425-.806-.813-1.325-.813-.781 0-1.488.706-1.488 1.5s.706 1.5 1.488 1.5c.519 0 1.15-.387 1.325-.813l.075-.187h2.806l.15-.156.156-.15v-6.694h.863c1.081 0 1.337-.075 1.719-.5.563-.625.563-1.375 0-2-.45-.506-.419-.5-3.719-.5H24v-1.5h6.694l.15-.156.156-.15V6.305l-.156-.15c-.15-.156-.169-.156-1.25-.156H28.5v1H30v6.5h-6.694l-.15.156c-.156.15-.156.169-.156 1.25v1.094H9v-1.094c0-1.081 0-1.1-.156-1.25l-.15-.156H2v-6.5h1.5v-1H2.406c-1.081 0-1.1 0-1.25.156zm28.688 11c.206.2.206.487 0 .688l-.15.156H2.307l-.15-.156c-.1-.094-.156-.225-.156-.344s.056-.25.156-.344l.15-.156h27.387l.15.156zm-21 8c.313.306.094.844-.344.844-.119 0-.25-.056-.344-.156-.1-.094-.156-.225-.156-.344s.056-.25.156-.344c.094-.1.225-.156.344-.156s.25.056.344.156zm15 0c.313.306.094.844-.344.844-.256 0-.5-.244-.5-.5s.244-.5.5-.5c.119 0 .25.056.344.156z"/>
      <path d="M15.731 20.069c-.144.087-3.231 6.256-3.231 6.462 0 .087.069.231.156.313.15.156.15.156 1.5.156H15.5v3.694l.156.15c.156.162.394.2.6.094.15-.087 3.244-6.25 3.244-6.469 0-.087-.069-.231-.156-.313-.15-.156-.15-.156-1.5-.156H16.5v-3.694l-.156-.15c-.156-.163-.419-.2-.613-.087zm-.05 4.812c.131.106.256.119 1.325.119h1.181l-.831 1.656-.825 1.662-.031-1.044c-.044-1.369.069-1.275-1.506-1.275h-1.181l.831-1.656.825-1.663.031 1.044c.031.994.037 1.044.181 1.156z"/>
    </symbol>
    <symbol id="icon-facebook" viewBox="0 0 32 32">
      <path d="M31.601 16.019c0 7.824-5.734 14.31-13.218 15.487V20.581h3.639l.693-4.52h-4.332v-2.933c0-1.237.606-2.442 2.544-2.442h1.969V6.837s-1.788-.306-3.496-.306c-3.567 0-5.898 2.165-5.898 6.082v3.445H9.536v4.52h3.966v10.925C6.019 30.325.284 23.84.284 16.017.284 7.36 7.295.341 15.942.341S31.6 7.359 31.6 16.017z"/>
    </symbol>
    <symbol id="icon-instagram" viewBox="0 0 31 32">
      <path d="M15.345 3.826c4.026 0 4.503.015 6.093.088 1.644.075 3.336.45 4.534 1.649 1.209 1.21 1.572 2.888 1.647 4.539.073 1.591.088 2.069.088 6.1s-.015 4.509-.088 6.1c-.074 1.637-.457 3.347-1.647 4.539-1.209 1.21-2.884 1.574-4.534 1.649-1.589.073-2.067.088-6.093.088s-4.503-.015-6.093-.088c-1.622-.074-3.354-.467-4.534-1.649-1.202-1.204-1.572-2.898-1.647-4.539-.073-1.591-.088-2.069-.088-6.1s.015-4.509.088-6.1c.074-1.63.461-3.351 1.647-4.539 1.206-1.208 2.889-1.574 4.534-1.649 1.589-.073 2.067-.088 6.093-.088zm0-2.72c-4.095 0-4.609.018-6.217.091-2.331.107-4.645.756-6.33 2.443C1.107 5.333.465 7.645.358 9.978c-.073 1.61-.09 2.125-.09 6.225s.018 4.614.09 6.224c.107 2.331.758 4.655 2.44 6.338 1.69 1.692 4.003 2.336 6.33 2.443 1.608.073 2.122.091 6.217.091s4.609-.018 6.217-.091c2.33-.107 4.647-.757 6.33-2.443 1.693-1.694 2.333-4.005 2.44-6.338.073-1.61.09-2.125.09-6.224s-.018-4.614-.09-6.225c-.107-2.334-.756-4.652-2.44-6.338-1.688-1.689-4.007-2.337-6.33-2.443-1.608-.073-2.122-.091-6.217-.091z"/>
      <path d="M15.345 8.451c-4.276 0-7.743 3.471-7.743 7.752s3.467 7.752 7.743 7.752 7.743-3.471 7.743-7.752-3.467-7.752-7.743-7.752zm0 12.783c-2.776 0-5.026-2.253-5.026-5.032s2.25-5.032 5.026-5.032 5.026 2.253 5.026 5.032-2.25 5.032-5.026 5.032zM23.395 9.956c.999 0 1.809-.811 1.809-1.812s-.81-1.812-1.809-1.812c-.999 0-1.809.811-1.809 1.812s.81 1.812 1.809 1.812z"/>
    </symbol>
    <symbol id="icon-power-generator" viewBox="0 0 32 32">
      <path d="M13.9 2.1c-2.875.85-5.275 1.675-5.325 1.825-.175.5.425 2.3.85 2.55.325.175.275.25-.375.4-1.175.25-3.525 1.875-4.875 3.35C2.225 12.425 1 15.575 1 18.5 1 25.25 6.75 31 13.5 31c6.775 0 12.525-5.775 12.5-12.575 0-1.2-.45-3.475-.875-4.5-.15-.375-.025-.425.85-.425h1l.075 1.925.075 1.95h3.75V1.625h-3.75L27.05 3.05c-.075 1.6.025 1.55-3.05 1.825-.9.075-2.05.2-2.55.275-.85.125-.95.075-1.325-.675-.4-.75-.4-.825 0-1.05.325-.175.375-.425.25-1.125-.225-1.175-.55-1.8-.95-1.775-.175 0-2.65.725-5.525 1.575zm5.425.025c.1.2.075.4-.025.45-.1.075-2.25.7-4.775 1.45C10.1 5.3 9.7 5.35 9.725 4.575c0-.2 8.3-2.75 9.05-2.8.225-.025.475.15.55.35zM30 9.5v7h-2v-14h2v7zm-11-5c.15.275.225.6.15.725-.075.1-1.125.275-2.325.375-1.225.1-2.625.25-3.125.325-1.85.275-.925-.35 1.625-1.125C18.4 3.875 18.65 3.85 19 4.5zM27 9c0 3.325-.025 3.5-.5 3.5s-.5-.175-.5-3.325c0-1.85.075-3.425.175-3.5.075-.1.3-.175.5-.175.25 0 .325.75.325 3.5zm-2 .125V12.5h-1.5c-1.325 0-1.5.05-1.5.5 0 .425.175.5 1 .5.975 0 .975.025 1.375 1.3 1.35 4.425.35 8.65-2.8 11.775-6.925 6.925-18.75 2.575-19.5-7.2-.4-5.25 2.975-10.275 8-11.875.725-.225 11.85-1.55 14.5-1.725.375-.025.425.3.425 3.35zm-13.425-2.95c-.175.05-.475.05-.625 0-.175-.075-.05-.125.3-.125s.475.05.325.125z"/>
      <path d="M11.125 9.825c-2.725.925-4.65 2.575-5.8 5.05-.6 1.275-.7 1.825-.7 3.625s.1 2.35.7 3.65c.9 1.925 2.6 3.625 4.55 4.525 1.275.6 1.825.7 3.625.7s2.35-.1 3.625-.7c1.95-.9 3.65-2.6 4.55-4.525.6-1.3.7-1.85.7-3.65s-.1-2.35-.7-3.65c-1.425-3.075-4.425-5.1-7.775-5.275-1.025-.025-2.2.075-2.775.25zm5.75 1.45c1.575.75 3.075 2.25 3.875 3.85.5 1.025.625 1.625.625 3.375-.025 1.925-.1 2.275-.85 3.7-.95 1.75-1.75 2.525-3.625 3.5-1.075.55-1.6.65-3.4.65-1.75.025-2.35-.1-3.375-.6-6.5-3.2-5.95-12.375.875-14.85 1.575-.575 4.25-.4 5.875.375z"/>
      <path d="M11.525 11.775C8.675 12.6 6.5 15.5 6.5 18.525c0 2.875 2.175 5.825 4.875 6.625 3.4.975 6.725-.425 8.3-3.5 2.75-5.4-2.3-11.55-8.15-9.875zM15.35 12.8c2.15.65 4.15 3.4 4.15 5.7 0 3.1-2.9 6-6 6s-6-2.9-6-6c0-1.575.575-2.85 1.875-4.125C11.125 12.6 13 12.125 15.35 12.8z"/>
      <path d="M12.1 16.4c-.625 1.325-1.075 2.575-1 2.775.075.175.5.325 1 .325h.875l.075 1.675c.05 1.05.2 1.7.4 1.775.375.125 2.65-4.6 2.45-5.125-.075-.175-.5-.325-1-.325h-.875l-.075-1.675c-.1-2.425-.5-2.3-1.85.575zm.95 1.475c.1.475.025.625-.325.625-.4 0-.425-.075-.175-.625.15-.35.3-.625.325-.625.05 0 .125.275.175.625zm1.425 1.175c-.4.8-.4.8-.525.075-.1-.5-.025-.625.35-.625.4 0 .425.075.175.55z"/>
    </symbol>
    <symbol id="icon-spanners" viewBox="0 0 36 32">
      <path d="M31.367 8.582c-2.302-.594-3.779-2.835-3.642-5.613l-.356-.119c.288-.747.815-1.526 1.891-2.204 1.498-.939 3.551-.503 4.567.194-1.306.722-1.982 1.06-3.24 1.832-.48 2.088.569 3.207 2.055 3.577 1.242-.642.779-.397 3.105-1.451.011 1.816-1.697 3.717-3.884 4.085-.146.025-.313.041-.491.046l-.005-.347zM25.823 27.031c.064.24.146.48.251.72-.82-2.364 1.587-6.168 4.667-5.709-.32-.089-.632-.146-.938-.167l.037-.427c.569.048 1.105.119 1.53.281.861.105 1.692.434 2.386 1.028 1.993 1.702 2.249 5.064.543 7.054-1.706 1.994-5.058 2.25-7.051.544-.011-.016-.025-.021-.041-.041-1.105-.71-1.525-1.905-1.872-3.152l.489-.13zm7.923.16-.288-.804.151-.831-.642-.553-.288-.804-.84-.158-.648-.548-.799.288-.84-.155-.557.647-.804.283-.155.845-.553.647.292.799-.155.845.648.553.283.804.836.155.653.553.808-.288.831.155.548-.653.808-.283.155-.836.555-.66z"/>
      <path d="M10.474 27.39c.361-3.009-1.669-5.885-4.688-5.535l-.082-.466c1.352-.228 3.146-.126 4.026-.861l4.994-4.407c-2.238-1.88-4.348-3.623-8.037-6.68-.589-.137-1.368-.085-2.021-.085l-.032-.366c2.959-.281 4.153-3.682 3.441-5.706l.356-.119c.502 1.247.34 2.421.945 2.908l8.487 7.278 8.606-7.591c.594-.5.413-1.661.897-2.908l.356.119c-.685 2.051.594 5.487 3.642 5.613l.005.35c-.683.027-1.544-.037-2.171.121-3.788 3.221-5.882 4.996-8.179 6.997l5.45 4.667c.751.61 2.135.621 3.368.731l-.037.427c-2.788-.199-4.713 2.401-3.982 5.158l-.484.13c-.272-.962-.491-1.953-.945-2.773-2.793-2.421-4.825-4.167-6.51-5.601-1.58 1.398-3.48 3.075-6.044 5.343-.527.996-.715 2.234-1.059 3.363l-.301-.089v-.018zM26.252 9.563c.495-.443.694-1.028.438-1.316-.251-.281-.856-.155-1.352.276l-6.457 5.697 1.059.905 6.311-5.562zm-1.687 12.194c.251-.288.041-.877-.47-1.316L10.562 8.855c-.502-.434-1.117-.548-1.368-.267-.251.302-.046.886.466 1.316l13.538 11.598c.502.439 1.117.553 1.368.256zm-11.57-.503 3.815-3.367c-.365-.318-.722-.61-1.059-.905l-3.672 3.239c-.491.434-.699 1.023-.443 1.307.256.29.856.167 1.359-.274z"/>
      <path d="m10.474 27.41.301.089c-.308 1.039-.747 1.99-1.697 2.59-1.327.852-3.222 1.348-5.418.272 1.165-.653 2.407-1.252 3.601-1.873-.027-1.368-.027-1.368-.137-2.716-.678-.576-1.05-.955-2.181-1.563-1.653.886-2.119 1.039-3.409 1.889-.228-1.905 1.617-3.593 3.117-4.397.288-.155.653-.247 1.055-.313l.082.466c2.854.048 4.688 3.646 4.688 5.535-.002.007-.002.011-.002.021zM4.487 9.001c.048-.005.098-.009.146-.011l.032.366c-.247 0-.479-.009-.674-.037C1.781 8.969.029 7.08.018 5.246c2.359 1.035 1.888.795 3.146 1.425 1.502-.402 2.541-1.544 2.021-3.635-1.288-.768-1.961-1.097-3.293-1.807C2.899.514 4.972.048 6.491.973c1.096.669 1.639 1.446 1.941 2.193l-.356.119c.174 2.796-1.274 5.083-3.589 5.716z"/>
    </symbol>
    <symbol id="icon-telegram" viewBox="0 0 38 32">
      <path d="M34.884.178c-2.487.93-33.174 12.916-33.628 13.139-1.5.722-1.675 1.674-.424 2.321.124.067 2.195.737 4.616 1.503l4.396 1.391 9.978-6.354c5.494-3.489 10.095-6.391 10.227-6.436.344-.119.636-.112.768.03.095.097.102.141.022.283-.044.097-3.694 3.467-8.098 7.485-4.404 4.025-8.025 7.343-8.039 7.381s-.161 2.046-.329 4.464l-.307 4.39.336-.045c.183-.022.468-.119.636-.216.176-.089 1.317-1.146 2.553-2.344 1.229-1.198 2.282-2.202 2.334-2.217.051-.022 2.012 1.391 4.36 3.14 2.341 1.748 4.44 3.259 4.667 3.363.593.283 1.251.305 1.682.074.388-.208.761-.729.922-1.272.058-.208 1.405-6.51 2.977-14.002C37.159 3.786 37.4 2.581 37.4 1.934c0-.61-.022-.759-.183-1.079-.11-.231-.307-.461-.497-.595-.432-.305-1.148-.342-1.836-.082z"/>
    </symbol>
    <symbol id="icon-viber" viewBox="0 0 29 32">
      <path d="M8.93.213C5.669.879 2.377 3.458.925 6.529.184 8.065.124 8.499.036 12.874c-.089 3.883-.03 4.983.415 6.229.771 2.318 2.342 4.462 4.299 5.824l1.749 1.188v2.665c0 1.652.119 2.753.326 2.897.178.116 1.394-.898 2.817-2.318l2.52-2.492h3.854c3.024 0 4.181-.116 5.455-.55 3.351-1.159 6.019-3.883 7.116-7.215.415-1.217.474-2.405.385-6.229-.089-4.636-.089-4.752-1.038-6.606C26.748 3.92 24.91 2.211 22.271.994 20.314.096 20.225.067 15.244.009 12.487-.02 9.64.067 8.929.212zM19.663 5.37c2.402 1.275 3.765 3.593 3.795 6.345.03 1.565-.326 2.347-.889 1.999-.178-.087-.237-.666-.148-1.275.474-3.448-2.787-7.012-6.464-7.012-.978 0-1.245-.261-.801-.782.504-.608 2.669-.232 4.507.724zm-8.687 2.289c2.135 1.97 2.253 2.724.682 3.998-.978.811-1.067.985-.86 1.883.267 1.246 2.55 3.651 3.854 4.056 1.038.319 2.224.029 2.224-.58 0-.493.949-1.159 1.69-1.159.563 0 1.216.464 2.342 1.652.89.927 1.601 1.912 1.601 2.202 0 .695-2.224 3.013-3.143 3.216-1.245.319-3.706-.579-5.93-2.115-4.329-2.955-7.827-7.765-7.827-10.749 0-1.275.119-1.478 1.482-2.724.801-.724 1.601-1.333 1.779-1.333s1.127.724 2.105 1.652zm7.323-.666c1.838.927 3.024 2.781 3.024 4.694 0 .782-.119 1.014-.474.927-.326-.058-.534-.464-.593-1.217-.089-1.13-1.186-2.839-2.135-3.332-.296-.145-1.038-.348-1.69-.464-1.423-.261-1.69-.406-1.483-.753.267-.406 2.461-.319 3.351.145zm-.83 2.057c1.423.724 2.372 3.042 1.245 3.042-.356 0-.623-.319-.801-.956-.208-.666-.534-1.014-1.245-1.217-1.156-.377-1.393-.579-1.127-.985.267-.435.919-.406 1.927.116z"/>
    </symbol>
    <symbol id="icon-youtube" viewBox="0 0 44 32">
      <path d="M43.504 5.787c-.502-1.79-1.98-3.201-3.858-3.68-3.402-.868-17.048-.868-17.048-.868s-13.646 0-17.05.868c-1.876.479-3.355 1.888-3.857 3.68C.778 9.032.778 15.802.778 15.802s0 6.77.913 10.015c.502 1.79 1.98 3.201 3.858 3.679 3.402.868 17.048.868 17.048.868s13.646 0 17.05-.868c1.877-.479 3.355-1.888 3.858-3.679.911-3.245.911-10.015.911-10.015s0-6.77-.913-10.015zM18.135 21.951V9.655l11.404 6.148-11.404 6.148z"/>
    </symbol>
  </defs>
</svg>
