<svg xmlns="http://www.w3.org/2000/svg" aria-hidden="true" overflow="hidden" style="position:absolute;width:0;height:0">
  <defs>
    <symbol id="icon-arrow-left" viewBox="0 0 18 32">
      <path d="M2.275 15.86 15.964 2.021c.448-.453 1.175-.452 1.622.002s.446 1.191-.002 1.645L4.71 16.683l12.874 13.015c.448.453.45 1.19.002 1.644-.224.228-.518.342-.813.342s-.586-.113-.81-.34L2.274 17.505c-.216-.218-.337-.514-.337-.823s.122-.605.337-.823z"/>
    </symbol>
    <symbol id="icon-arrow-right" viewBox="0 0 18 32">
      <path d="M16.724 14.931 2.799 1.092c-.456-.453-1.195-.452-1.65.002s-.454 1.191.002 1.645l13.096 13.015L1.151 28.769c-.456.454-.457 1.19-.002 1.644.228.228.527.342.827.342s.596-.113.824-.34l13.925-13.839c.22-.218.343-.514.343-.823s-.124-.605-.343-.823z"/>
    </symbol>
  </defs>
</svg>
